<?xml version="1.0" encoding="utf-8"?>
<!-- Generator: Adobe Illustrator 24.1.0, SVG Export Plug-In . SVG Version: 6.00 Build 0)  -->
<svg version="1.1" id="Group_20" xmlns="http://www.w3.org/2000/svg" xmlns:xlink="http://www.w3.org/1999/xlink" x="0px" y="0px"
	 viewBox="0 0 331.4 49.3" style="enable-background:new 0 0 331.4 49.3;" xml:space="preserve">
<style type="text/css">
	.st0{fill:#101010;}
</style>
<path id="Path_1" class="st0" d="M7,48.4H0v-0.1c2.4-2.2,2.7-3.4,4.2-7.4l14-38.5h1.7l14.2,39.1c1.6,4.6,2.1,5.3,4,6.8v0.1h-7.8
	v-0.1c0.8-1.1,1.4-3.2,0.1-7L27,31.2H9.3l-3.5,9.9C4.3,45.1,5.5,47,7,48.3V48.4z M18.2,6.5L9.8,30h16.7L18.2,6.5z"/>
<path id="Path_2" class="st0" d="M48.3,48.4h-5.8v-0.1c1.2-2.2,1.4-4,1.4-7.3V25.7c0-1.9-1-3.7-2.7-4.7v-0.1l5.6-3.2v5.7l0.2,0.1
	C49.7,20,53.8,18,58.1,18c5.8,0,8.7,3.4,8.7,9.1v13.9c0,3.4,0.1,5.3,1.4,7.3v0.1h-5.8v-0.1c1.2-2.2,1.4-4.1,1.4-7.3V27.7
	c0-4.2-1.7-7.3-7-7.3c-3.7,0-7.2,1.4-9.8,4.1v16.5c0,3.3,0.1,5.2,1.4,7.3L48.3,48.4z"/>
<path id="Path_3" class="st0" d="M91.4,44.9c-2.6,2.7-6.1,4.3-9.8,4.4c-4.4,0-7.3-2.4-7.3-6.3c0-7.3,10-10.4,17.1-11.1v-5.7
	c0-3.3-1.6-6.3-7-6.3c-3.1,0-6.1,1-8.7,2.7l-0.3-0.4c2.9-2.8,6.8-4.3,10.8-4.2c6.9,0,8.3,3.6,8.3,7.6v18.8c0,1.7,0.7,2.7,2.4,2.7
	c1.2,0,2.2-0.6,3-1.5l0.2,0.1c-0.6,2.1-2.5,3.5-4.7,3.5C92.7,49.1,91.4,47.3,91.4,44.9z M91.4,43.9v-11c-6.7,0.8-13.9,3.5-13.9,9.3
	c0,2.9,1.7,5,5.6,5C86.1,47.1,89.1,45.9,91.4,43.9L91.4,43.9z"/>
<path id="Path_4" class="st0" d="M121.4,24.6l-0.5,0.1c-2.3-4.5-4.8-5.7-7.9-5.7c-3.9,0-6.6,2.2-6.6,5.5c0,3.9,3.5,5.2,7.9,6.8
	c4.3,1.7,8.8,3.7,8.8,9.4c0,5.2-3.7,8.5-10.9,8.5c-2.8,0.1-5.6-0.6-8.2-1.8l-0.6-6.3l0.5-0.1c2.1,5,4.8,7.1,9.2,7.1
	c5,0,7.5-2.9,7.5-6.3c0-4.1-3.7-5.8-7.8-7.3c-4.2-1.5-8.9-3.5-8.9-8.9c0-5.8,5.2-7.8,10.2-7.8c2.3,0,4.6,0.3,6.7,1.1L121.4,24.6z"/>
<path id="Path_5" class="st0" d="M130.5,42.5V20h-3.4v-0.1l6.3-5.5h0.1v4.5h9.2V20h-9.2v22.6c0,3.2,1.4,4.8,4.5,4.8
	c1.8,0,3.6-0.5,5.2-1.3l0.1,0.2c-1.8,1.9-4.2,2.9-6.8,3C133.8,49.3,130.5,47.8,130.5,42.5z"/>
<path id="Path_6" class="st0" d="M164.6,44.9c-2.6,2.7-6.1,4.3-9.8,4.4c-4.4,0-7.3-2.4-7.3-6.3c0-7.3,10-10.4,17.1-11.1v-5.7
	c0-3.3-1.6-6.3-7-6.3c-3.1,0-6.1,1-8.7,2.7l-0.3-0.4c2.9-2.8,6.8-4.3,10.8-4.2c6.9,0,8.3,3.6,8.3,7.6v18.8c0,1.7,0.7,2.7,2.4,2.7
	c1.2,0,2.2-0.6,3-1.5l0.2,0.1c-0.6,2.1-2.5,3.5-4.7,3.5C165.9,49.1,164.6,47.3,164.6,44.9z M164.6,43.9v-11
	c-6.7,0.8-13.9,3.5-13.9,9.3c0,2.9,1.7,5,5.6,5C159.3,47.1,162.3,45.9,164.6,43.9L164.6,43.9z"/>
<path id="Path_7" class="st0" d="M194.6,24.6l-0.5,0.1c-2.3-4.5-4.8-5.7-7.9-5.7c-3.9,0-6.6,2.2-6.6,5.5c0,3.9,3.5,5.2,7.9,6.8
	c4.3,1.7,8.8,3.7,8.8,9.4c0,5.2-3.7,8.5-10.9,8.5c-2.8,0.1-5.6-0.6-8.2-1.8l-0.6-6.3l0.5-0.1c2,5,4.8,7.1,9.2,7.1
	c5,0,7.5-2.9,7.5-6.3c0-4.1-3.7-5.8-7.8-7.3c-4.2-1.5-8.9-3.5-8.9-8.9c0-5.8,5.2-7.8,10.2-7.8c2.3,0,4.6,0.3,6.7,1.1L194.6,24.6z"/>
<path id="Path_8" class="st0" d="M218.2,24.6l-0.5,0.1c-2.3-4.5-4.8-5.7-7.9-5.7c-3.9,0-6.6,2.2-6.6,5.5c0,3.9,3.5,5.2,7.9,6.8
	c4.3,1.7,8.8,3.7,8.8,9.4c0,5.2-3.7,8.5-10.9,8.5c-2.8,0.1-5.6-0.6-8.2-1.8l-0.6-6.3l0.5-0.1c2.1,5,4.8,7.1,9.2,7.1
	c5,0,7.5-2.9,7.5-6.3c0-4.1-3.7-5.8-7.8-7.3c-4.2-1.5-8.9-3.5-8.9-8.9c0-5.8,5.2-7.8,10.2-7.8c2.3,0,4.6,0.3,6.7,1.1L218.2,24.6z"/>
<path id="Path_9" class="st0" d="M225.1,48.3c1.2-2.2,1.4-4,1.4-7.3V25.6c0-1.9-1.1-3.7-2.7-4.6v-0.1l5.8-3.2v23.3
	c0,3.3,0.1,5.2,1.4,7.3v0.1h-5.8L225.1,48.3z M227.8,10c-1.4,0-2.5-1.1-2.5-2.5s1.1-2.5,2.5-2.5c1.4,0,2.5,1.1,2.5,2.5c0,0,0,0,0,0
	C230.4,8.8,229.2,10,227.8,10C227.8,10,227.8,10,227.8,10L227.8,10z"/>
<path id="Path_10" class="st0" d="M254.1,44.9c-2.6,2.7-6.1,4.3-9.8,4.4c-4.4,0-7.3-2.4-7.3-6.3c0-7.3,10-10.4,17.1-11.1v-5.7
	c0-3.3-1.6-6.3-7-6.3c-3.1,0-6.1,1-8.7,2.7l-0.3-0.4c2.9-2.8,6.8-4.3,10.8-4.2c6.9,0,8.3,3.6,8.3,7.6v18.8c0,1.7,0.7,2.7,2.4,2.7
	c1.2,0,2.2-0.6,3-1.5l0.2,0.1c-0.6,2.1-2.5,3.5-4.7,3.5C255.4,49.1,254.1,47.3,254.1,44.9z M254.1,43.9v-11
	c-6.7,0.8-13.9,3.5-13.9,9.3c0,2.9,1.7,5,5.6,5C248.8,47.1,251.8,45.9,254.1,43.9L254.1,43.9z"/>
<path id="Path_11" class="st0" d="M288.8,43c-2.2,4-6.5,6.5-11.1,6.3c-7.5,0-12.5-5.7-12.5-14.6c0-8.8,6.5-16.8,16.3-16.8
	c2.5,0,5,0.5,7.2,1.7v-13c0-2-1.3-3.1-2.7-3.9V2.6l5.8-2.6v41.7c0,3.9,0.7,4.5,2.7,5.4v0.1l-5.5,1.9V43H288.8z M288.7,41.8v-14
	c0-6.9-4.3-8.7-8.1-8.7c-6.8,0-11.8,6.1-11.8,14.5s4.5,13.6,10.7,13.6C283.3,47.1,286.8,45.1,288.7,41.8z"/>
<path id="Path_12" class="st0" d="M300.2,48.3c1.2-2.2,1.4-4,1.4-7.3V25.6c0-1.9-1.1-3.7-2.7-4.6v-0.1l5.8-3.2v23.3
	c0,3.3,0.1,5.2,1.4,7.3v0.1h-5.8L300.2,48.3z M302.9,10c-1.4,0-2.5-1.1-2.5-2.5s1.1-2.5,2.5-2.5s2.5,1.1,2.5,2.5l0,0
	C305.5,8.8,304.3,10,302.9,10C302.9,10,302.9,10,302.9,10L302.9,10z"/>
<path id="Path_13" class="st0" d="M329.7,24.6l-0.5,0.1c-2.3-4.5-4.8-5.7-7.9-5.7c-3.9,0-6.6,2.2-6.6,5.5c0,3.9,3.5,5.2,7.9,6.8
	c4.3,1.7,8.8,3.7,8.8,9.4c0,5.2-3.7,8.5-10.9,8.5c-2.8,0.1-5.6-0.6-8.2-1.8l-0.6-6.3l0.5-0.1c2.1,5,4.8,7.1,9.2,7.1
	c5,0,7.5-2.9,7.5-6.3c0-4.1-3.7-5.8-7.8-7.3c-4.2-1.5-8.9-3.5-8.9-8.9c0-5.8,5.2-7.8,10.2-7.8c2.3,0,4.6,0.3,6.7,1.1L329.7,24.6z"/>
</svg>
